<svg width="83" height="85" viewBox="0 0 83 85" fill="none" xmlns="http://www.w3.org/2000/svg">
<circle cx="60.5" cy="22.5" r="22.5" fill="#FF5353"/>
<path d="M38 43.0588V12.2646" stroke="black" stroke-width="2" stroke-linecap="round" stroke-linejoin="round"/>
<path d="M62.6818 27.6619L13.3184 58.456" stroke="black" stroke-width="2" stroke-linecap="round" stroke-linejoin="round"/>
<path d="M9.97525 48.6886C8.7413 41.4732 9.92852 34.0188 13.3237 27.6641C16.7189 21.3094 22.0996 16.4708 28.4996 14.0171V37.1326L9.97525 48.6886Z" stroke="black" stroke-width="2" stroke-linecap="round" stroke-linejoin="round"/>
<path d="M37.9999 12.2646C42.9931 12.2656 47.8985 13.6841 52.2248 16.3779C56.5511 19.0718 60.1464 22.9465 62.6508 27.614C65.1552 32.2815 66.4806 37.5781 66.4945 42.9733C66.5084 48.3684 65.2102 53.6728 62.7298 58.3553C60.2495 63.0378 56.6741 66.9341 52.3618 69.6538C48.0494 72.3736 43.1514 73.8215 38.1582 73.8524C33.1651 73.8834 28.252 72.4964 23.911 69.8303C19.57 67.1642 15.9535 63.3126 13.4236 58.6612" stroke="black" stroke-width="2" stroke-linecap="round" stroke-linejoin="round"/>
</svg>
