<svg width="90" height="83" viewBox="0 0 90 83" fill="none" xmlns="http://www.w3.org/2000/svg">
<circle cx="67.5" cy="31.5" r="22.5" fill="#53C1FF"/>
<path d="M13.3975 62.8768C13.4715 63.2141 13.608 63.5318 13.7986 63.8107C13.9892 64.0895 14.2301 64.3239 14.5067 64.4995C14.7833 64.6752 15.0899 64.7886 15.4081 64.8329C15.7264 64.8772 16.0496 64.8514 16.3584 64.7572C30.5161 60.5335 45.4683 60.532 59.6267 64.7528C59.9354 64.8469 60.2585 64.8726 60.5766 64.8283C60.8947 64.784 61.2013 64.6707 61.4778 64.4951C61.7543 64.3195 61.9951 64.0854 62.1857 63.8066C62.3763 63.5279 62.5128 63.2104 62.587 62.8733L70.1539 28.1282C70.2552 27.6631 70.2343 27.1766 70.0936 26.7236C69.9528 26.2706 69.6978 25.8691 69.3572 25.5643C69.0167 25.2594 68.6041 25.0634 68.166 24.9982C67.7279 24.933 67.2816 25.0013 66.8775 25.1954L51.8604 32.4069C51.3182 32.6673 50.7053 32.6989 50.1426 32.4956C49.5798 32.2922 49.1079 31.8686 48.8197 31.3081L40.076 14.3026C39.8704 13.9026 39.5694 13.5692 39.2044 13.3371C38.8393 13.105 38.4235 12.9827 37.9999 12.9827C37.5764 12.9827 37.1605 13.105 36.7955 13.3371C36.4305 13.5692 36.1295 13.9026 35.9238 14.3026L27.1801 31.3081C26.892 31.8686 26.42 32.2922 25.8573 32.4956C25.2945 32.6989 24.6817 32.6673 24.1394 32.4069L9.1201 25.1943C8.71605 25.0003 8.26989 24.932 7.83185 24.9971C7.39382 25.0622 6.9813 25.2581 6.64075 25.5628C6.3002 25.8675 6.04513 26.2689 5.90427 26.7218C5.7634 27.1746 5.74234 27.661 5.84344 28.1261L13.3975 62.8768Z" stroke="black" stroke-width="2" stroke-linecap="round" stroke-linejoin="round"/>
<path d="M28.5 51.8623C34.8159 51.1439 41.1841 51.1439 47.5 51.8623" stroke="black" stroke-width="2" stroke-linecap="round" stroke-linejoin="round"/>
</svg>
