<svg width="67" height="80" viewBox="0 0 67 80" fill="none" xmlns="http://www.w3.org/2000/svg">
<circle cx="41.5" cy="22.5" r="22.5" fill="#FFBA53"/>
<path d="M42.3984 52.8115C47.3129 52.8115 51.2969 48.5068 51.2969 43.1968C51.2969 37.8867 47.3129 33.582 42.3984 33.582C37.484 33.582 33.5 37.8867 33.5 43.1968C33.5 48.5068 37.484 52.8115 42.3984 52.8115Z" stroke="black" stroke-width="2" stroke-linecap="round" stroke-linejoin="round"/>
<path d="M33.5 33.582V14.3528H24.6016C22.2416 14.3528 19.9782 15.3658 18.3094 17.1689C16.6406 18.972 15.7031 21.4175 15.7031 23.9675C15.7031 26.5175 16.6406 28.963 18.3094 30.7662C19.9782 32.5693 22.2416 33.5822 24.6016 33.5822L33.5 33.582Z" stroke="black" stroke-width="2" stroke-linecap="round" stroke-linejoin="round"/>
<path d="M33.5 52.8112V33.582H24.6016C22.2416 33.582 19.9782 34.595 18.3094 36.3981C16.6406 38.2012 15.7031 40.6468 15.7031 43.1968C15.7031 45.7467 16.6406 48.1923 18.3094 49.9954C19.9782 51.7985 22.2416 52.8115 24.6016 52.8115L33.5 52.8112Z" stroke="black" stroke-width="2" stroke-linecap="round" stroke-linejoin="round"/>
<path d="M33.5 33.582V14.3528H42.3984C44.7584 14.3528 47.0218 15.3658 48.6906 17.1689C50.3594 18.972 51.2969 21.4175 51.2969 23.9675C51.2969 26.5175 50.3594 28.963 48.6906 30.7662C47.0218 32.5693 44.7584 33.5822 42.3984 33.5822L33.5 33.582Z" stroke="black" stroke-width="2" stroke-linecap="round" stroke-linejoin="round"/>
<path d="M33.5 52.811V62.4259C33.5 64.3275 32.9782 66.1864 32.0004 67.7676C31.0226 69.3487 29.6329 70.5811 28.0069 71.3088C26.381 72.0366 24.5918 72.227 22.8656 71.856C21.1395 71.485 19.5539 70.5693 18.3095 69.2247C17.065 67.8801 16.2175 66.1669 15.8741 64.3018C15.5308 62.4367 15.707 60.5035 16.3805 58.7466C17.054 56.9898 18.1945 55.4882 19.6578 54.4317C21.1212 53.3752 22.8416 52.8113 24.6016 52.8113L33.5 52.811Z" stroke="black" stroke-width="2" stroke-linecap="round" stroke-linejoin="round"/>
</svg>
