<svg width="81" height="83" viewBox="0 0 81 83" fill="none" xmlns="http://www.w3.org/2000/svg">
<circle cx="22.5" cy="32.5" r="22.5" fill="#7553FF"/>
<path d="M44.3095 61.9444L59.2826 72.1943C61.1965 73.5045 63.5728 71.5559 63.0048 69.1419L58.6788 50.7545C58.557 50.2423 58.5714 49.7034 58.7204 49.1998C58.8694 48.6961 59.147 48.2481 59.5212 47.9073L72.9481 35.8323C74.7123 34.2457 73.8017 31.0821 71.535 30.9232L54.0004 29.6935C53.5281 29.6571 53.0752 29.4764 52.6942 29.1726C52.3133 28.8687 52.0201 28.4542 51.8487 27.9772L45.3091 10.183C45.1313 9.67679 44.8152 9.24097 44.4028 8.93343C43.9904 8.62589 43.5011 8.46118 43 8.46118C42.4989 8.46118 42.0097 8.62589 41.5972 8.93343C41.1848 9.24097 40.8687 9.67679 40.691 10.183L34.1513 27.9772C33.98 28.4542 33.6867 28.8687 33.3058 29.1726C32.9249 29.4764 32.4719 29.6571 31.9996 29.6935L14.465 30.9232C12.1983 31.0821 11.2877 34.2457 13.052 35.8323L26.4788 47.9073C26.853 48.2481 27.1306 48.6961 27.2796 49.1998C27.4286 49.7034 27.443 50.2423 27.3212 50.7545L23.3093 67.8068C22.6278 70.7035 25.4793 73.0419 27.776 71.4697L41.6905 61.9444C42.0818 61.6752 42.5361 61.5323 43 61.5323C43.4639 61.5323 43.9182 61.6752 44.3095 61.9444V61.9444Z" stroke="black" stroke-width="2" stroke-linecap="round" stroke-linejoin="round"/>
</svg>
